inDegrees=no
num_controls=7
num_derivatives=13
num_iterations=84
num_multipliers=7
num_parameters=0
num_slacks=7
num_states=26
objective=0.333891
objective_accelerations=0.036819
objective_balance=0.001322
objective_effort=0.027122
objective_height=0.267154
objective_ligament=0.001473
solver_duration=871.839322
status=Solve_Succeeded
success=true
DataType=double
version=3
OpenSimVersion=4.5
endheader
time	/jointset/ground_pelvis/pelvis_tilt/value	/jointset/ground_pelvis/pelvis_tx/value	/jointset/ground_pelvis/pelvis_ty/value	/jointset/hip_r/hip_flexion_r/value	/jointset/hip_r/hip_adduction_r/value	/jointset/hip_r/hip_rotation_r/value	/jointset/back/lumbar_extension/value	/jointset/patellofemoral_r/patellar_flexion_r/value	/jointset/knee_r/knee_flexion_r/value	/jointset/knee_r/knee_adduction_r/value	/jointset/knee_r/knee_rotation_r/value	/jointset/ankle_r/ankle_angle_r/value	/jointset/subtalar_r/subtalar_angle_r/value	/jointset/ground_pelvis/pelvis_tilt/speed	/jointset/ground_pelvis/pelvis_tx/speed	/jointset/ground_pelvis/pelvis_ty/speed	/jointset/hip_r/hip_flexion_r/speed	/jointset/hip_r/hip_adduction_r/speed	/jointset/hip_r/hip_rotation_r/speed	/jointset/back/lumbar_extension/speed	/jointset/patellofemoral_r/patellar_flexion_r/speed	/jointset/knee_r/knee_flexion_r/speed	/jointset/knee_r/knee_adduction_r/speed	/jointset/knee_r/knee_rotation_r/speed	/jointset/ankle_r/ankle_angle_r/speed	/jointset/subtalar_r/subtalar_angle_r/speed	/forceset/tau_hip_flexion_r	/forceset/tau_hip_adduction_r	/forceset/tau_hip_rotation_r	/forceset/tau_knee_flexion_r	/forceset/tau_ankle_angle_r	/forceset/tau_subtalar_angle_r	/forceset/tau_lumbar_extension	lambda_cid13_p0	lambda_cid14_p0	lambda_cid14_p1	lambda_cid14_p2	lambda_cid14_p3	lambda_cid14_p4	lambda_cid14_p5	/jointset/ground_pelvis/pelvis_tilt/accel	/jointset/ground_pelvis/pelvis_tx/accel	/jointset/ground_pelvis/pelvis_ty/accel	/jointset/hip_r/hip_flexion_r/accel	/jointset/hip_r/hip_adduction_r/accel	/jointset/hip_r/hip_rotation_r/accel	/jointset/back/lumbar_extension/accel	/jointset/patellofemoral_r/patellar_flexion_r/accel	/jointset/knee_r/knee_flexion_r/accel	/jointset/knee_r/knee_adduction_r/accel	/jointset/knee_r/knee_rotation_r/accel	/jointset/ankle_r/ankle_angle_r/accel	/jointset/subtalar_r/subtalar_angle_r/accel	gamma_cid13_p0	gamma_cid14_p0	gamma_cid14_p1	gamma_cid14_p2	gamma_cid14_p3	gamma_cid14_p4	gamma_cid14_p5
0	-0.01068787481057527	0.1336248272948624	0.9326568434154134	0.1934211968871041	-0.2362334284415719	-0.2341283212443898	-0.2903787966825928	0.2311786273363391	0.2311786273363406	0.150596324852737	0.1708672422348977	0.089344008118978	0.05378761802655272	0	0	0	0	0	0	0	0	0	0	0	0	0	0.1069992971319091	-0.04005628092422928	0.005852956873854807	-0.2461705266053967	0.125665490589711	-0.1260834511660274	-0.02807808706016705	-29.91580283447655	-7.806354210992266	-51.17156872958	2.922209633199868	2.424598718158534	-611.5047481763887	18.76299725056844	-2.075743325582398	-1.894528705220907	-0.8281417489262987	10.27120294827335	0.3236565447652359	2.231639481318467	-6.269321053003945	10.0895389780905	10.0895389780905	-3.257691828162455	0.3247911432117157	2.737812699846103	1.141026619284598	6.423460181240742e-08	5.044672693328467e-08	-4.055842271008603e-07	3.359077366320001e-07	6.705517583580502e-09	2.216068085934069e-07	-3.824608063730939e-07
0.01	-0.01078616480608365	0.1335324161619788	0.9326165711572978	0.193921754602854	-0.2362149421392888	-0.2340155412381201	-0.2906937486088825	0.2316743703380682	0.231674370338066	0.1504309557478916	0.1708785217644541	0.08948076536183849	0.05384746257784585	-0.01963116845810118	-0.01827121312005708	-0.008038844120199654	0.09957687140628285	0.003644587836336734	0.02249237866803696	-0.0625821012539952	0.09872336146699261	0.09872336146699263	-0.0328425020881289	0.002213281578016877	0.02738579846047027	0.01191659214092678	0.107695610348771	-0.06023883530514929	0.005563303915146301	-0.2527849642020522	0.1333489157926852	-0.1123119357530979	-0.02739876076701168	-29.92055441560464	-4.636728776460732	-44.51952153357505	1.729076765180614	-1.866169440911635	-612.9171897654408	33.34347524713287	-1.902780379898199	-1.761764255654911	-0.7893702967718873	9.720730495589089	0.37695407746608	2.248560628603385	-6.191412061102912	9.699936052321771	9.699936052321778	-3.262864876111143	0.1632688422313501	2.74412513503528	1.209103347901865	8.747618709687164e-08	4.458325311795763e-08	-5.425671370015863e-07	4.435536239786277e-07	3.091107600419436e-08	1.14954017800808e-07	-5.297505384515733e-07
0.02	-0.01107996184096589	0.1332636235698433	0.932496387547339	0.1954020412844261	-0.2361615911237648	-0.2336797327313598	-0.2916222730276125	0.2331445872187256	0.2331445872187262	0.1499440945267704	0.1709106685452315	0.08989241293248092	0.05402489861782924	-0.03910140787518186	-0.03527629185035915	-0.01598227036859112	0.1959457931639002	0.006972942648599836	0.04460570009835668	-0.1227144984882218	0.1948947757867113	0.1948947757867116	-0.06429842325517973	0.004173450241419302	0.05497806555645343	0.02351829773806001	0.108391923565648	-0.08042138968606463	0.005273650956494261	-0.259399401798703	0.1410323409956639	-0.09854042034016224	-0.02671943447384877	-29.93435584952626	-1.387358507984901	-37.8780606449595	0.565674404081873	-6.071882693536634	-613.0032412246396	47.57295564032863	-2.043557517378352	-1.641301827269854	-0.8090581745646644	9.629613018540244	0.260409939950512	2.155828033775021	-5.779380249050252	9.579149548635703	9.579149548635755	-2.980375643946847	0.2741685602888175	2.77910642694874	1.078049310525907	1.107177723813359e-07	3.871977930263059e-08	-6.795500469023123e-07	5.511995113252552e-07	5.511663442480822e-08	8.301227008209144e-09	-6.770402705300529e-07
0.03	-0.01156745557928623	0.1328296656383401	0.9322970210524659	0.1978313532024282	-0.2360764818823514	-0.2331269420497004	-0.2931393597266658	0.2355635499782289	0.2355635499782258	0.1491495021762349	0.1709629830845041	0.09057893961262795	0.05431633436051778	-0.05831121673520973	-0.05144814390278369	-0.02389052819611046	0.2894782719338248	0.0100274464547772	0.06582084440442929	-0.1802862455863674	0.288430601814601	0.2884306018146008	-0.0944357620058664	0.006259068205638457	0.08216341661780803	0.03470377227720616	0.1021345380142441	-0.08130376081160449	0.006041878961973757	-0.2523180959333247	0.1305801380815521	-0.0928346992325359	-0.02166152055283864	-29.95663310582325	-4.45301598352824	-35.79326830815924	0.06930745921618789	-4.578729213303064	-613.37074097069	50.68434474472605	-1.846767589107121	-1.595043190842758	-0.7816332960409106	9.149323254594078	0.3247576727444046	2.084726734015831	-5.683582579874779	9.170700747610118	9.17070074761002	-3.002821158708781	0.1713065820164919	2.663683010159207	1.128993322516989	1.209753817778678e-07	3.687143769181069e-08	-7.162251674756539e-07	6.127689546460974e-07	6.317411140139565e-08	-5.929394990841839e-08	-7.380071331808251e-07
